<?xml version="1.0" standalone="no"?><!DOCTYPE svg PUBLIC "-//W3C//DTD SVG 1.1//EN" "http://www.w3.org/Graphics/SVG/1.1/DTD/svg11.dtd"><svg t="1523022204006" class="icon" style="" viewBox="0 0 1024 1024" version="1.1" xmlns="http://www.w3.org/2000/svg" p-id="823" xmlns:xlink="http://www.w3.org/1999/xlink" width="200" height="200"><defs><style type="text/css"></style></defs><path d="M896 208h-16V128h96c9.6 0 16-6.4 16-16V32c0-9.6-6.4-16-16-16H752c-9.6 0-16 6.4-16 16v80c0 9.6 6.4 16 16 16h96v80H176V128h96c9.6 0 16-6.4 16-16V32c0-9.6-6.4-16-16-16H48c-9.6 0-16 6.4-16 16v80c0 9.6 6.4 16 16 16h96v80H128c-62.4 0-112 49.6-112 112v576c0 62.4 49.6 112 112 112h768c62.4 0 112-49.6 112-112V320c0-62.4-49.6-112-112-112zM768 48h192v48H768V48zM64 48h192v48H64V48z m912 848c0 44.8-35.2 80-80 80H128c-44.8 0-80-35.2-80-80V320c0-44.8 35.2-80 80-80h768c44.8 0 80 35.2 80 80v576z" fill="#ffffff" p-id="824"></path><path d="M832 544H192c-9.6 0-16 6.4-16 16v288c0 9.6 6.4 16 16 16h640c9.6 0 16-6.4 16-16V560c0-9.6-6.4-16-16-16z m-16 144h-96v-112h96v112z m-384 0h-96v-112h96v112z m32-112h96v112h-96v-112z m-32 144v112h-96v-112h96z m32 0h96v112h-96v-112z m128 0h96v112h-96v-112z m0-32v-112h96v112h-96z m-288-112v112h-96v-112h96z m-96 144h96v112h-96v-112z m512 112v-112h96v112h-96zM224 400h144c9.6 0 16-6.4 16-16s-6.4-16-16-16h-144c-9.6 0-16 6.4-16 16s6.4 16 16 16zM656 400h144c9.6 0 16-6.4 16-16s-6.4-16-16-16h-144c-9.6 0-16 6.4-16 16s6.4 16 16 16z" fill="#ffffff" p-id="825"></path></svg>